<svg width="36" height="38" viewBox="0 0 36 38" fill="none" xmlns="http://www.w3.org/2000/svg">
<g clip-path="url(#clip0_631_16824)">
<path d="M11.4504 30.6273C13.095 29.5825 14.9245 28.8627 16.8397 28.5068C15.3033 28.7542 13.9199 29.1083 13.4109 29.2961C11.8281 29.821 9.74404 30.7456 8.26172 31.6926" fill="#278BFC"/>
<path d="M11.596 30.8777C13.223 29.8537 15.0275 29.1442 16.9158 28.7858C17.2851 28.7147 17.1244 28.1674 16.7614 28.2269C13.7025 28.7286 10.7448 29.7784 8.1138 31.4405C7.79942 31.6392 8.08986 32.1417 8.40656 31.9414C10.9997 30.3026 13.9002 29.2806 16.9151 28.7858L16.7606 28.2269C14.8232 28.5966 12.9719 29.3257 11.3025 30.3768C10.9881 30.5755 11.2777 31.0779 11.5945 30.8777H11.596Z" fill="#278BFC"/>
<path d="M11.4512 30.6272L16.5987 35.7695C17.1418 36.3122 17.822 36.697 18.5665 36.883C19.3111 37.069 20.0922 37.0491 20.8264 36.8255L18.0077 37.7486C17.8086 37.8308 17.6036 37.8977 17.3944 37.9488L17.3681 37.9573C16.6678 38.1231 15.9367 38.107 15.2443 37.9107C14.5519 37.7144 13.921 37.3443 13.4116 36.8356L8.26172 31.6909L11.4504 30.6272" fill="#278BFC"/>
<path d="M11.2464 30.832L13.8727 33.4604C14.7665 34.3533 15.627 35.3073 16.5724 36.1468C17.1545 36.6596 17.8567 37.0166 18.6137 37.1846C19.3707 37.3527 20.158 37.3262 20.902 37.1077L20.7475 36.5488C19.5945 36.926 18.4415 37.3033 17.2885 37.6805L17.6446 37.8831C17.6225 37.8101 17.5732 37.7484 17.507 37.7107C17.4407 37.673 17.3625 37.6622 17.2885 37.6805C16.6366 37.827 15.9583 37.8076 15.3158 37.6242C14.6732 37.4408 14.0868 37.0993 13.6101 36.6307C13.3336 36.3602 13.0624 36.0834 12.7882 35.8097L9.39564 32.4207L8.4687 31.493L8.34048 31.9777L11.5299 30.914C11.8814 30.7965 11.7307 30.236 11.3754 30.3551L8.18444 31.4118C8.13624 31.4261 8.09252 31.4525 8.05748 31.4886C8.02244 31.5246 7.99727 31.5691 7.98439 31.6177C7.97151 31.6663 7.97135 31.7175 7.98393 31.7662C7.99651 31.8149 8.02141 31.8595 8.05622 31.8958C9.77182 33.6096 11.4681 35.3459 13.2046 37.0381C13.7549 37.576 14.4312 37.9673 15.1716 38.1762C15.912 38.3852 16.6929 38.405 17.443 38.234L17.0869 38.0315C17.1085 38.105 17.1578 38.1672 17.2244 38.205C17.291 38.2428 17.3697 38.2532 17.4438 38.234C18.5947 37.8558 19.7475 37.4785 20.902 37.1023C21.2543 36.9871 21.109 36.439 20.7475 36.5434C20.0722 36.7444 19.3558 36.7635 18.6707 36.5988C17.9856 36.434 17.3562 36.0911 16.8459 35.6049C16.5786 35.3475 16.3199 35.0808 16.0572 34.8187L12.6052 31.3701L11.6535 30.4192C11.3893 30.1556 10.9799 30.5654 11.2441 30.829L11.2464 30.832Z" fill="#278BFC"/>
<path d="M16.3923 35.9742C16.913 36.486 17.548 36.8664 18.2447 37.0839C18.9414 37.3014 19.6799 37.3498 20.399 37.225C21.4109 37.0487 22.2529 36.5122 22.9674 35.7979L26.7964 31.9721L28.091 30.6795C28.1218 30.6479 28.145 30.6097 28.159 30.5678C28.1729 30.526 28.1772 30.4815 28.1716 30.4377C28.1659 30.3939 28.1505 30.352 28.1264 30.315C28.1023 30.278 28.0701 30.247 28.0323 30.2242C24.0689 27.8277 19.0974 27.2866 14.7045 28.7601C13.511 29.1606 12.3698 29.7033 11.3057 30.3765C11.268 30.3993 11.2358 30.4303 11.2117 30.4673C11.1876 30.5042 11.1721 30.5462 11.1665 30.59C11.1608 30.6338 11.1651 30.6782 11.1791 30.7201C11.193 30.762 11.2163 30.8002 11.247 30.8318L15.7465 35.3271L16.3946 35.9742C16.6588 36.2386 17.0682 35.8288 16.804 35.5645L12.3037 31.0692L11.6564 30.4221L11.5977 30.8774C16.4495 27.8107 22.8322 27.7528 27.7419 30.7228L27.6839 30.2675L24.7069 33.2407L22.8909 35.0519C22.4097 35.532 21.9516 36.0051 21.3306 36.3136C19.822 37.0626 17.9959 36.7241 16.8017 35.5614C16.5344 35.304 16.1243 35.7137 16.3923 35.9742Z" fill="#278BFC"/>
<path d="M9.07422 28.2541C9.13215 28.2147 9.19085 28.1768 9.24879 28.1382C9.18776 28.1761 9.13215 28.2147 9.07422 28.2541Z" fill="#278BFC"/>
<path d="M9.21847 28.5045C9.2764 28.4651 9.33511 28.4272 9.39381 28.3878L9.10106 27.8876L8.92648 28.0036C8.86234 28.0431 8.81481 28.1047 8.79285 28.1767C8.77324 28.2522 8.78377 28.3323 8.8222 28.4002C8.8607 28.4652 8.92261 28.5131 8.99523 28.5339C9.03253 28.544 9.07147 28.5466 9.10979 28.5416C9.14811 28.5366 9.18505 28.524 9.21847 28.5045C9.2764 28.4651 9.33511 28.4272 9.39381 28.3878C9.45796 28.3485 9.50529 28.2868 9.52667 28.2146C9.53671 28.1773 9.53929 28.1383 9.53425 28.1C9.52922 28.0616 9.51667 28.0247 9.49732 27.9912C9.45849 27.9249 9.39493 27.8767 9.32062 27.8573C9.24631 27.8379 9.16733 27.8488 9.10106 27.8876C9.04235 27.9255 8.98442 27.9649 8.92648 28.0036C8.86234 28.0431 8.81481 28.1047 8.79285 28.1767C8.77324 28.2522 8.78377 28.3323 8.8222 28.4002C8.8607 28.4652 8.92261 28.5131 8.99523 28.5339C9.03253 28.544 9.07147 28.5466 9.10979 28.5416C9.14811 28.5366 9.18505 28.524 9.21847 28.5045Z" fill="#278BFC"/>
<path d="M8.31767 4.97321C9.97547 3.31242 11.9804 2.03988 14.1883 1.2471L14.4524 1.15356L10.8915 2.3518C8.75179 3.12021 6.84307 4.32617 5.12901 6.03849C3.64868 7.51613 2.4742 9.27156 1.67284 11.2042C0.871479 13.1368 0.458984 15.2087 0.458984 17.3011C0.458984 19.3935 0.871479 21.4654 1.67284 23.398C2.4742 25.3307 3.64868 27.0861 5.12901 28.5637L5.88523 29.319L9.0739 28.2553L8.31767 27.5C6.83711 26.0223 5.66244 24.2668 4.86094 22.334C4.05944 20.4013 3.64687 18.3292 3.64687 16.2366C3.64687 14.144 4.05944 12.072 4.86094 10.1392C5.66244 8.20641 6.83711 6.45089 8.31767 4.97321Z" fill="#278BFC"/>
<path d="M8.52225 5.17841C10.2217 3.49884 12.2739 2.21959 14.5296 1.43374C14.8779 1.31082 14.732 0.754979 14.3751 0.874029C13.0704 1.31235 11.7426 1.7074 10.4595 2.20292C7.61694 3.30143 5.14897 5.23405 3.33372 7.67767C0.110294 12.0176 -0.706955 17.882 1.18091 22.9455C1.70804 24.3658 2.43279 25.7045 3.33372 26.9221C4.0351 27.866 4.85003 28.6939 5.67887 29.5226C5.71475 29.5594 5.75979 29.586 5.80935 29.5996C5.85891 29.6132 5.91119 29.6133 5.96081 29.5999L9.15025 28.5362C9.19839 28.5217 9.24202 28.4952 9.27695 28.459C9.31187 28.4228 9.33694 28.3783 9.34973 28.3296C9.36252 28.281 9.36261 28.2298 9.35 28.1811C9.33739 28.1325 9.31249 28.0878 9.2777 28.0515C8.29901 27.0736 7.35044 26.091 6.57413 24.9361C5.1289 22.7771 4.24417 20.2916 3.99992 17.7044C3.75567 15.1172 4.15962 12.5099 5.17523 10.1182C5.96619 8.27484 7.1008 6.59915 8.51839 5.18073C8.78179 4.91634 8.37239 4.50585 8.10899 4.771C5.55114 7.32634 3.92078 10.6644 3.47734 14.2541C3.03391 17.8437 3.80287 21.4787 5.66187 24.5805C6.54092 26.0408 7.67024 27.2645 8.86522 28.4612L8.99267 27.9765L5.80401 29.0402L6.08595 29.1175C5.4201 28.4527 4.75116 27.7949 4.16024 27.0597C1.68223 23.9651 0.477162 20.041 0.790821 16.0877C1.21644 10.4808 4.79133 5.35698 9.92578 3.05173C11.4027 2.38923 12.9939 1.95322 14.5257 1.43836L14.3712 0.878672C12.0204 1.69525 9.88095 3.0257 8.10822 4.77333C7.84713 5.03153 8.26039 5.44434 8.52225 5.17841Z" fill="#278BFC"/>
<path d="M24.5234 21.1603C22.4841 23.1703 19.3573 23.7787 16.7341 22.5913C15.4408 22.0007 14.3569 21.0315 13.6253 19.8118C12.8937 18.592 12.5489 17.179 12.6362 15.759C12.8309 12.7851 15.0015 10.21 17.8835 9.4826C20.7655 8.75515 23.8576 9.9758 25.4612 12.4712C27.2239 15.2117 26.799 18.8528 24.5234 21.1603C24.2615 21.4263 24.6709 21.8368 24.9336 21.5708C26.0069 20.4823 26.7281 19.0957 27.0037 17.5915C27.2792 16.0872 27.0962 14.5348 26.4785 13.136C25.1753 10.2116 22.0176 8.40032 18.839 8.72964C15.6318 9.06205 12.8911 11.4601 12.2137 14.6288C11.8967 16.1374 12.0445 17.7067 12.6376 19.1295C13.2306 20.5523 14.241 21.7615 15.5352 22.5974C18.4968 24.4945 22.4447 24.0207 24.9367 21.5701C25.2001 21.3088 24.7922 20.8983 24.5234 21.1603Z" fill="#278BFC"/>
<path d="M31.0697 4.76783C28.6088 2.30012 25.4197 0.690534 21.974 0.177091C18.5282 -0.336352 15.0089 0.273604 11.9364 1.91678C8.86391 3.55996 6.40138 6.14911 4.913 9.30131C3.42461 12.4535 2.9894 16.0014 3.67173 19.4203C4.04795 21.314 4.76175 23.1245 5.77897 24.7652C6.63793 26.1489 7.72245 27.3163 8.86876 28.4588C8.91418 28.5038 8.97308 28.5326 9.03642 28.5408C9.09976 28.5491 9.16406 28.5363 9.21945 28.5044C14.1114 25.2375 20.4199 24.4606 25.9816 26.3399C27.4373 26.8364 28.8259 27.5116 30.1157 28.3498C30.1713 28.3815 30.2356 28.3941 30.2991 28.3859C30.3625 28.3777 30.4215 28.349 30.4672 28.3042C31.5347 27.2382 32.535 26.1397 33.343 24.8579C34.2772 23.3745 34.9626 21.7482 35.3722 20.0434C36.025 17.3416 35.972 14.5172 35.2183 11.8419C34.4646 9.16663 33.0357 6.73046 31.0689 4.76783C30.8055 4.50345 30.3953 4.91317 30.6587 5.17833C33.1205 7.6521 34.7334 10.909 35.1389 14.3862C35.5327 17.7552 34.8282 21.1614 33.1306 24.0973C32.2971 25.5282 31.2257 26.7311 30.0616 27.8945L30.4123 27.8489C25.4293 24.6299 19.0326 23.8839 13.4185 25.7902C11.8316 26.3291 10.3218 27.0732 8.92747 28.0035L9.27815 28.0491C8.35122 27.1214 7.449 26.1976 6.70127 25.1161C5.75025 23.7392 5.02699 22.2179 4.55927 20.6108C3.59641 17.2735 3.76911 13.7106 5.05022 10.4822C6.33133 7.25381 8.6482 4.54308 11.6366 2.77618C14.6249 1.00929 18.1153 0.286417 21.5589 0.721248C25.0025 1.15608 28.2041 2.72394 30.6603 5.17833C30.9252 5.44426 31.3346 5.03144 31.0697 4.76783Z" fill="#278BFC"/>
<path d="M20.2321 23.1727C17.6568 23.3783 15.127 22.1909 13.7204 20.0032C13.2215 19.2276 12.8816 18.3605 12.7207 17.4522C12.5597 16.544 12.5807 15.6128 12.7827 14.7128C12.9846 13.8128 13.3633 12.962 13.8968 12.2098C14.4303 11.4577 15.1079 10.8192 15.8902 10.3315C16.2038 10.132 15.9134 9.62955 15.5974 9.83132C13.3651 11.2545 11.9824 13.7368 12.0388 16.3976C12.0615 17.4297 12.2956 18.4462 12.7264 19.3842C13.1572 20.3222 13.7757 21.1618 14.5436 21.8511C15.3115 22.5404 16.2125 23.0648 17.191 23.3919C18.1694 23.7189 19.2044 23.8416 20.2321 23.7525C20.6013 23.7223 20.6044 23.1425 20.2321 23.1727Z" fill="#278BFC"/>
<path d="M20.2321 23.4565C21.6179 22.5963 22.6732 21.2934 23.2272 19.7585C23.7812 18.2236 23.8015 16.5466 23.2849 14.9987C22.7682 13.4508 21.7449 12.1226 20.3804 11.2291C19.0158 10.3355 17.39 9.92889 15.7659 10.0749H15.752C16.6818 9.49259 17.7314 9.12889 18.8219 9.01113C19.9125 8.89338 21.0155 9.02464 22.048 9.39507C23.0805 9.7655 24.0157 10.3655 24.7831 11.1498C25.5505 11.9341 26.1302 12.8823 26.4786 13.9232C26.8269 14.9641 26.9349 16.0705 26.7944 17.1592C26.6538 18.2479 26.2684 19.2905 25.6671 20.2086C25.0659 21.1267 24.2644 21.8963 23.323 22.4597C22.3816 23.0231 21.3248 23.3655 20.2321 23.4611" fill="#278BFC"/>
<path d="M20.3797 23.7069C22.6198 22.2876 24.0102 19.8092 23.953 17.1406C23.9309 16.1078 23.6971 15.0905 23.266 14.1518C22.835 13.2131 22.2159 12.373 21.4472 11.6836C20.6785 10.9941 19.7765 10.47 18.7971 10.1437C17.8177 9.81735 16.7818 9.69579 15.7535 9.78653L15.9003 10.3277C18.7684 8.57051 22.5433 9.09078 24.7989 11.6009C26.947 13.9927 27.1347 17.6601 25.2778 20.2761C24.6923 21.0905 23.9398 21.7702 23.0706 22.2699C22.2013 22.7696 21.2354 23.0777 20.2376 23.1735C19.8699 23.2091 19.866 23.7919 20.2376 23.7533C23.9924 23.3907 27.0065 20.3008 27.1417 16.502C27.2692 12.9329 24.7595 9.66361 21.2711 8.87974C19.3315 8.44823 17.3002 8.78778 15.606 9.82673C15.3742 9.96819 15.4515 10.3903 15.752 10.3679C18.3142 10.1707 20.8239 11.3172 22.2405 13.4902C22.7495 14.2659 23.0979 15.1359 23.2652 16.0486C23.4325 16.9614 23.4153 17.8985 23.2145 18.8044C23.0137 19.7104 22.6335 20.5669 22.0963 21.3233C21.5591 22.0797 20.8759 22.7207 20.0869 23.2083C19.7726 23.407 20.063 23.9094 20.3789 23.7085L20.3797 23.7069Z" fill="#278BFC"/>
</g>
<defs>
<clipPath id="clip0_631_16824">
<rect width="35.6407" height="38.3234" fill="white" transform="translate(0.179688)"/>
</clipPath>
</defs>
</svg>
