<svg width="718" height="772" viewBox="0 0 718 772" fill="none" xmlns="http://www.w3.org/2000/svg">
<g clip-path="url(#clip0_310_13134)">
<path d="M226.763 616.965C259.854 595.919 296.664 581.419 335.201 574.25C304.287 579.233 276.451 586.365 266.209 590.149C234.363 600.723 192.43 619.348 162.604 638.424" fill="#278BFC"/>
<path d="M229.703 622.012C262.439 601.384 298.747 587.09 336.742 579.872C344.171 578.439 340.938 567.414 333.634 568.613C272.086 578.72 212.575 599.867 159.638 633.349C153.313 637.351 159.156 647.473 165.529 643.44C217.704 610.426 276.065 589.838 336.727 579.872L333.618 568.613C294.635 576.059 257.387 590.748 223.797 611.921C217.471 615.923 223.299 626.045 229.672 622.012H229.703Z" fill="#278BFC"/>
<path d="M226.764 616.965L330.337 720.554C341.265 731.485 354.95 739.237 369.931 742.984C384.912 746.73 400.628 746.33 415.4 741.826L358.686 760.42C354.681 762.076 350.556 763.425 346.346 764.454L345.817 764.625C331.726 767.965 317.017 767.642 303.085 763.687C289.153 759.733 276.46 752.278 266.21 742.029L162.59 638.393L226.748 616.965" fill="#278BFC"/>
<path d="M222.644 621.093L275.487 674.04C293.47 692.026 310.784 711.243 329.807 728.155C341.518 738.485 355.647 745.677 370.879 749.062C386.111 752.446 401.951 751.913 416.922 747.512L413.813 736.253C390.614 743.852 367.415 751.452 344.215 759.051L351.38 763.131C350.935 761.661 349.944 760.418 348.611 759.658C347.277 758.899 345.704 758.682 344.215 759.051C331.097 762.001 317.451 761.611 304.523 757.917C291.594 754.223 279.795 747.342 270.203 737.903C264.639 732.453 259.184 726.878 253.666 721.365L185.405 653.095L166.754 634.407L164.174 644.171L228.348 622.743C235.42 620.376 232.389 609.086 225.239 611.484L161.034 632.772C160.065 633.059 159.185 633.592 158.48 634.318C157.775 635.044 157.268 635.94 157.009 636.92C156.75 637.899 156.747 638.929 157 639.91C157.253 640.891 157.754 641.79 158.455 642.521C192.974 677.045 227.104 712.022 262.043 746.11C273.117 756.946 286.724 764.828 301.622 769.037C316.519 773.245 332.232 773.645 347.324 770.201L340.159 766.121C340.594 767.602 341.586 768.855 342.925 769.616C344.265 770.377 345.848 770.587 347.339 770.201C370.497 762.581 393.691 754.981 416.922 747.403C424.009 745.082 421.087 734.041 413.813 736.144C400.225 740.194 385.811 740.579 372.026 737.259C358.242 733.94 345.577 727.033 335.31 717.238C329.932 712.053 324.725 706.68 319.441 701.401L249.983 631.932L230.835 612.777C225.519 607.467 217.282 615.72 222.597 621.031L222.644 621.093Z" fill="#278BFC"/>
<path d="M326.22 724.682C336.696 734.993 349.472 742.656 363.491 747.037C377.51 751.419 392.368 752.393 406.837 749.879C427.197 746.328 444.138 735.521 458.515 721.131L535.558 644.062L561.607 618.025C562.226 617.387 562.693 616.618 562.974 615.775C563.254 614.931 563.341 614.035 563.228 613.153C563.114 612.271 562.803 611.426 562.318 610.681C561.833 609.937 561.186 609.311 560.425 608.853C480.678 560.577 380.648 549.676 292.26 579.358C268.244 587.427 245.284 598.359 223.874 611.92C223.114 612.379 222.467 613.004 221.981 613.749C221.496 614.494 221.185 615.339 221.072 616.221C220.958 617.103 221.045 617.999 221.326 618.842C221.606 619.686 222.074 620.455 222.693 621.092L313.226 711.648L326.266 724.682C331.582 730.008 339.819 721.754 334.504 716.428L243.954 625.873L230.93 612.839L229.749 622.011C327.37 560.235 455.795 559.067 554.581 618.897L553.416 609.725L493.516 669.617L456.976 706.104C447.294 715.775 438.077 725.305 425.581 731.519C395.227 746.609 358.485 739.788 334.457 716.366C329.079 711.181 320.826 719.434 326.22 724.682Z" fill="#278BFC"/>
<path d="M178.956 569.157C180.122 568.363 181.303 567.6 182.469 566.821C181.241 567.584 180.122 568.363 178.956 569.157Z" fill="#278BFC"/>
<path d="M181.894 574.203C183.059 573.409 184.241 572.646 185.422 571.852L179.531 561.776L176.019 564.112C174.728 564.908 173.772 566.148 173.33 567.6C172.935 569.12 173.147 570.735 173.92 572.101C174.695 573.411 175.941 574.375 177.402 574.795C178.152 574.999 178.936 575.052 179.707 574.95C180.478 574.849 181.221 574.595 181.894 574.203C183.059 573.409 184.241 572.646 185.422 571.852C186.712 571.06 187.665 569.817 188.095 568.363C188.297 567.611 188.349 566.826 188.247 566.054C188.146 565.282 187.894 564.537 187.504 563.863C186.723 562.527 185.444 561.557 183.949 561.166C182.454 560.774 180.865 560.994 179.531 561.776C178.35 562.539 177.184 563.334 176.019 564.112C174.728 564.908 173.772 566.148 173.33 567.6C172.935 569.12 173.147 570.735 173.92 572.101C174.695 573.411 175.941 574.375 177.402 574.795C178.152 574.999 178.936 575.052 179.707 574.95C180.478 574.849 181.221 574.595 181.894 574.203Z" fill="#278BFC"/>
<path d="M163.74 100.187C197.097 66.7314 237.437 41.097 281.861 25.1269L287.177 23.2427L215.527 47.3803C172.475 62.8596 134.07 87.1529 99.5821 121.646C69.7969 151.413 46.1654 186.775 30.0414 225.706C13.9174 264.638 5.61768 306.374 5.61768 348.525C5.61768 390.675 13.9174 432.412 30.0414 471.343C46.1654 510.275 69.7969 545.637 99.5821 575.403L114.798 590.618L178.956 569.19L163.74 553.975C133.95 524.208 110.315 488.845 94.1884 449.91C78.0616 410.976 69.7604 369.236 69.7604 327.081C69.7604 284.927 78.0616 243.187 94.1884 204.252C110.315 165.318 133.95 129.954 163.74 100.187Z" fill="#278BFC"/>
<path d="M167.859 104.314C202.053 70.4797 243.345 44.7099 288.731 28.8795C295.74 26.4035 292.803 15.2064 285.622 17.6046C259.371 26.4343 232.654 34.3922 206.839 44.3743C149.643 66.5031 99.9857 105.434 63.4615 154.66C-1.39625 242.085 -17.8399 360.219 20.1453 462.22C30.7517 490.831 45.3342 517.799 63.4615 542.326C77.5738 561.341 93.971 578.019 110.648 594.713C111.37 595.454 112.276 595.99 113.273 596.263C114.27 596.537 115.322 596.539 116.321 596.27L180.495 574.842C181.463 574.551 182.341 574.015 183.044 573.286C183.747 572.557 184.251 571.66 184.508 570.68C184.766 569.7 184.768 568.67 184.514 567.689C184.26 566.708 183.759 565.809 183.059 565.078C163.367 545.378 144.281 525.585 128.661 502.32C99.582 458.828 81.7804 408.76 76.866 356.642C71.9515 304.525 80.0792 252.002 100.514 203.823C116.429 166.689 139.258 132.933 167.781 104.36C173.081 99.0344 164.843 90.7653 159.544 96.1067C108.078 147.582 75.2737 214.826 66.3514 287.137C57.429 359.449 72.9012 432.673 110.306 495.157C127.993 524.573 150.716 549.225 174.759 573.331L177.324 563.567L113.166 584.995L118.838 586.553C105.441 573.16 91.9815 559.908 80.0917 545.098C30.2322 482.759 5.98542 403.711 12.2965 324.075C20.8602 211.126 92.7897 107.911 196.099 61.4731C225.816 48.1273 257.833 39.3441 288.653 28.9727L285.544 17.6981C238.245 34.1476 195.197 60.9487 159.528 96.1535C154.275 101.355 162.59 109.671 167.859 104.314Z" fill="#278BFC"/>
<path d="M489.786 426.264C448.755 466.752 385.84 479.008 333.058 455.089C307.038 443.191 285.228 423.669 270.508 399.098C255.788 374.526 248.849 346.061 250.607 317.457C254.523 257.549 298.197 205.676 356.185 191.023C414.173 176.369 476.389 200.958 508.655 251.226C544.122 306.432 535.574 379.779 489.786 426.264C484.517 431.621 492.755 439.89 498.039 434.533C519.634 412.604 534.147 384.673 539.691 354.371C545.234 324.069 541.552 292.797 529.124 264.619C502.904 205.708 439.367 169.221 375.411 175.855C310.88 182.551 255.736 230.858 242.105 294.69C235.728 325.08 238.702 356.693 250.634 385.353C262.567 414.014 282.896 438.373 308.937 455.213C368.526 493.428 447.962 483.883 498.101 434.517C503.401 429.254 495.195 420.984 489.786 426.264Z" fill="#278BFC"/>
<path d="M621.552 96.045C572.037 46.3345 507.87 13.9104 438.539 3.56739C369.209 -6.77561 298.397 5.51158 236.576 38.6124C174.755 71.7132 125.207 123.87 95.2599 187.369C65.3125 250.868 56.5557 322.338 70.2847 391.21C77.8545 429.358 92.2167 465.829 112.684 498.879C129.967 526.754 151.788 550.269 174.853 573.285C175.767 574.191 176.952 574.771 178.226 574.937C179.501 575.103 180.794 574.846 181.909 574.204C280.338 508.394 407.271 492.744 519.175 530.601C548.465 540.603 576.405 554.203 602.357 571.09C603.476 571.727 604.771 571.982 606.047 571.816C607.323 571.65 608.51 571.073 609.429 570.171C630.908 548.696 651.036 526.567 667.293 500.748C686.089 470.866 699.881 438.104 708.122 403.761C721.256 349.336 720.19 292.441 705.026 238.548C689.861 184.656 661.109 135.581 621.537 96.045C616.237 90.7191 607.984 98.9728 613.284 104.314C662.817 154.147 695.269 219.754 703.428 289.8C711.351 357.668 697.177 426.284 663.019 485.424C646.249 514.249 624.692 538.48 601.269 561.917L608.326 560.999C508.063 496.154 379.358 481.126 266.397 519.528C234.467 530.384 204.089 545.373 176.034 564.113L183.09 565.032C164.44 546.344 146.286 527.735 131.241 505.949C112.106 478.211 97.5535 447.566 88.1427 415.191C68.7692 347.963 72.244 276.191 98.021 211.157C123.798 146.123 170.415 91.5175 230.543 55.9244C290.671 20.3314 360.9 5.7697 430.188 14.5291C499.477 23.2885 563.895 54.8722 613.315 104.314C618.646 109.671 626.883 101.355 621.552 96.045Z" fill="#278BFC"/>
<path d="M403.496 466.798C351.678 470.941 300.777 447.021 272.475 402.95C262.436 387.327 255.599 369.859 252.36 351.563C249.12 333.268 249.544 314.51 253.607 296.38C257.67 278.25 265.29 261.111 276.024 245.958C286.758 230.806 300.392 217.944 316.133 208.12C322.443 204.102 316.599 193.98 310.242 198.045C265.325 226.714 237.505 276.718 238.639 330.319C239.097 351.11 243.806 371.586 252.475 390.482C261.144 409.377 273.588 426.29 289.039 440.176C304.49 454.062 322.619 464.626 342.305 471.213C361.992 477.801 382.818 480.274 403.496 478.478C410.925 477.87 410.987 466.191 403.496 466.798Z" fill="#278BFC"/>
<path d="M403.495 472.513C431.378 455.186 452.61 428.939 463.757 398.02C474.904 367.1 475.313 333.317 464.918 302.136C454.523 270.955 433.932 244.2 406.477 226.2C379.022 208.2 346.308 200.008 313.63 202.95H313.35C332.058 191.219 353.178 183.893 375.12 181.521C397.063 179.149 419.256 181.793 440.031 189.255C460.807 196.717 479.622 208.803 495.063 224.602C510.504 240.402 522.168 259.504 529.177 280.472C536.187 301.44 538.359 323.727 535.532 345.658C532.704 367.589 524.949 388.591 512.851 407.086C500.753 425.58 484.627 441.085 465.685 452.434C446.744 463.783 425.481 470.68 403.495 472.607" fill="#278BFC"/>
<path d="M406.431 477.559C451.503 448.967 479.479 399.041 478.329 345.284C477.884 324.479 473.179 303.986 464.506 285.077C455.833 266.168 443.378 249.245 427.91 235.356C412.443 221.467 394.294 210.909 374.588 204.336C354.881 197.762 334.038 195.313 313.348 197.141L316.301 208.042C374.01 172.645 449.964 183.126 495.348 233.69C538.571 281.872 542.348 355.749 504.984 408.447C493.205 424.852 478.063 438.546 460.573 448.612C443.083 458.678 423.649 464.884 403.571 466.814C396.173 467.53 396.095 479.272 403.571 478.493C479.122 471.19 539.768 408.945 542.488 332.421C545.052 260.522 494.555 194.665 424.367 178.875C385.34 170.182 344.469 177.022 310.38 197.951C305.717 200.801 307.271 209.304 313.317 208.852C364.871 204.881 415.368 227.975 443.872 271.75C454.113 287.376 461.124 304.9 464.49 323.287C467.856 341.674 467.509 360.551 463.469 378.801C459.43 397.052 451.779 414.305 440.97 429.543C430.162 444.78 416.414 457.692 400.54 467.514C394.215 471.516 400.058 481.639 406.415 477.59L406.431 477.559Z" fill="#278BFC"/>
</g>
<defs>
<clipPath id="clip0_310_13134">
<rect width="717.118" height="772" fill="white"/>
</clipPath>
</defs>
</svg>
