<svg width="61" height="61" viewBox="0 0 61 61" fill="none" xmlns="http://www.w3.org/2000/svg">
<path fill-rule="evenodd" clip-rule="evenodd" d="M38.3146 27.9861C41.6751 25.5766 44.0092 21.7756 44.4145 17.3345C45.1549 9.22125 39.1781 2.04398 31.0649 1.30357C24.1385 0.671477 17.8943 4.93508 15.755 11.2441C17.4901 10.9027 19.3025 10.8 21.1527 10.9688C30.3677 11.8098 37.4403 19.1057 38.3146 27.9861Z" fill="#278BFC"/>
<path fill-rule="evenodd" clip-rule="evenodd" d="M33.9759 27.1967C32.9841 23.1833 30.32 19.6071 26.3468 17.5841C19.0868 13.8875 10.2047 16.7763 6.5082 24.0363C3.35198 30.2352 4.99664 37.6165 10.064 41.9429C10.3903 40.2037 10.9673 38.4813 11.8108 36.8245C16.0088 28.5797 25.4055 24.7173 33.9759 27.1967Z" fill="#5CC3A7"/>
<path fill-rule="evenodd" clip-rule="evenodd" d="M24.2175 29.9686C20.5713 31.9168 17.76 35.3784 16.7761 39.7271C14.9783 47.6732 19.9625 55.5721 27.9086 57.3699C34.6927 58.9049 41.4426 55.4962 44.3903 49.5213C42.6245 49.6326 40.8132 49.4969 39.0001 49.0867C29.9757 47.0449 23.9211 38.886 24.2175 29.9686Z" fill="#877CD5"/>
<path fill-rule="evenodd" clip-rule="evenodd" d="M30.0715 35.9002C31.9433 39.5865 35.3457 42.4694 39.6731 43.5437C47.58 45.5066 55.5811 40.6881 57.544 32.7812C59.2198 26.031 55.9531 19.2121 50.0417 16.1402C50.1161 17.9077 49.9427 19.7153 49.4949 21.5192C47.2654 30.4995 38.9813 36.383 30.0715 35.9002Z" fill="#DB628B"/>
</svg>
